<svg xmlns="http://www.w3.org/2000/svg" viewBox="0 0 892.4 518"><defs><style>.cls-1{fill:#fff;}.cls-2{fill:#f47521;}</style></defs><title>Asset 1</title><g id="Layer_2" data-name="Layer 2"><g id="Layer_1-2" data-name="Layer 1"><path class="cls-1" d="M861.7,322.2H757.1L699.4,96.5,611,442H506.4L600.1,76.2A101.28,101.28,0,0,1,698.1,0h2.6a101.28,101.28,0,0,1,98,76.2Z"/><path class="cls-1" d="M548.1,76.2A101.19,101.19,0,0,0,450.1.1h-2.6a101.3,101.3,0,0,0-98,76.1L320.9,188,292.3,76.2A101.19,101.19,0,0,0,194.3.1h-2.6a101.3,101.3,0,0,0-98,76.1L0,442H104.6L193,96.5l78.7,307.4a50.49,50.49,0,0,0,36.4,36.4c-.2,0-.3-.1-.5-.2.6.2,1.2.3,1.8.5.2,0,.3.1.5.1s.4.1.7.1a1.7,1.7,0,0,0,.7.1,5,5,0,0,0,1.2.2h.3a9.85,9.85,0,0,0,1.7.2c.3,0,.5.1.8.1s.7.1,1,.1a4.87,4.87,0,0,0,1.2.1c.4,0,.8.1,1.2.1h4.5c.4,0,.8-.1,1.2-.1a4.87,4.87,0,0,0,1.2-.1,3.75,3.75,0,0,0,1-.1h.2a.9.9,0,0,0,.5-.1c.6-.1,1.2-.2,1.9-.3h0a15.52,15.52,0,0,0,2.1-.4l2.7-.6a50.59,50.59,0,0,0,36.2-36.3L448.9,96.3l63.3,248.2,52.3-204.1Z"/><polygon class="cls-2" points="892.4 442.1 846.4 442.1 840.4 442.1 787.8 442 753.9 442 682.8 441.9 649.4 441.9 630.2 441.9 656.2 340.6 675.3 340.6 708.8 340.7 761.9 340.7 779.8 340.7 820.5 340.8 866.5 340.8 892.4 442.1"/><path class="cls-1" d="M50.7,516.9l-.2-29.2L36.4,511.5H29.5l-14.1-23v28.4H1.1V461.8H13.9l19.3,31.7L52,461.7H64.8l.2,55.1H50.7Z"/><path class="cls-1" d="M93.3,511.3c-4.5-4.5-6.8-10.8-6.8-19V461.7h15.6v30.1c0,8.8,3.5,13.2,10.4,13.2s10.4-4.4,10.4-13.2V461.7h15.3v30.6c0,8.2-2.3,14.5-6.8,19s-10.9,6.7-19,6.7S97.8,515.7,93.3,511.3Z"/><path class="cls-1" d="M180.9,496.8l-5.8,6.2v13.8H159.7V461.7h15.4v22.9l21.3-22.9h17.1L191,486.1l23.6,30.7H196.5Z"/><path class="cls-1" d="M282.1,461.7v55.1H266.5V495.3H245.3v21.5H229.7V461.7h15.6v20.7h21.2V461.7Z"/><path class="cls-1" d="M315.8,474.1H298.9V461.7h49.2v12.4H331.3v42.8H315.7V474.1Z"/><path class="cls-1" d="M399,506.1H375.8l-4.3,10.7H355.6l24.3-55.1h15.3l24.3,55.1H403.3Zm-4.5-11.5L387.4,477l-7.1,17.6Z"/><path class="cls-1" d="M459,502.2h-8.5v14.7H434.9V461.8H460a30.78,30.78,0,0,1,13,2.5,19.28,19.28,0,0,1,8.5,7.1,19.48,19.48,0,0,1,3,10.8,18.6,18.6,0,0,1-2.8,10.4,18.91,18.91,0,0,1-8,7l11.9,17.3H468.9Zm7.3-26.1q-2.4-2.1-7.2-2.1h-8.6v16.1h8.6q4.8,0,7.2-2.1a7.47,7.47,0,0,0,2.4-5.9A7,7,0,0,0,466.3,476.1Z"/><path class="cls-1" d="M574.7,506.1H551.5l-4.3,10.7H531.3l24.3-55.1h15.3l24.3,55.1H579Zm-4.5-11.5L563.1,477,556,494.6Z"/><path class="cls-1" d="M662.9,461.7v55.1H647.3V495.3H626.2v21.5H610.6V461.7h15.6v20.7h21.2V461.7Z"/><path class="cls-1" d="M734.6,516.9l-.2-29.2-14.1,23.8h-6.9l-14.1-23v28.4H684.9V461.8h12.8L717,493.6l18.8-31.8h12.8l.2,55.1Z"/><path class="cls-1" d="M815,504.8v12.1H770.9V461.8H814v12.1H786.2v9.3h24.4v11.7H786.2V505H815Z"/><path class="cls-1" d="M834.6,461.7h26a35.52,35.52,0,0,1,16,3.4,25.31,25.31,0,0,1,10.8,9.6,26.72,26.72,0,0,1,3.8,14.6,27.85,27.85,0,0,1-3.8,14.6,25.83,25.83,0,0,1-10.8,9.6,35.82,35.82,0,0,1-16,3.4h-26ZM860,504.4c4.7,0,8.5-1.3,11.3-4s4.3-6.4,4.3-11.1-1.4-8.4-4.3-11.1-6.6-4-11.3-4h-9.8v30.2Z"/></g></g></svg>